<mxfile host="65bd71144e">
    <diagram id="KmpT55maVNq18Q6GPIjD" name="Page-1">
        <mxGraphModel dx="1200" dy="563" grid="1" gridSize="10" guides="1" tooltips="1" connect="1" arrows="1" fold="1" page="1" pageScale="1" pageWidth="850" pageHeight="1100" math="0" shadow="0">
            <root>
                <mxCell id="0"/>
                <mxCell id="1" parent="0"/>
                <mxCell id="2" value="                                    +--------v---------------+&#xa;                                    |  Startskärm           |&#xa;                                    |   (Ej inloggad)       |&#xa;&#xa;                                    |   Visa aktuella       |&#xa;                                    |  saneringsarbeten |&#xa;                                    |  (Ej hantering)       |&#xa;                                    +------------------------+&#xa;                                                 |&#xa;                                 +-----------v-----------+&#xa;                                 |   Behöver logga in |&#xa;                                 |                               |&#xa;                                 +-----------+-----------+&#xa;                                                 |&#xa;                                   +---------v---------+&#xa;                                   |    Logga in        |&#xa;                                   |    (eller skapa   |&#xa;                                   |     konto)           |&#xa;                                   +---------+---------+&#xa;                                                |&#xa;                                  +----------v----------+&#xa;                                  |  Inloggad            |&#xa;                                  +----------+----------+&#xa;                                                 |&#xa;              +--------------------+-------------------------+------------------------+---------------+&#xa;              |                          |                               |                              |&#xa;       +------v-----+    +-------v--------+       +--------v------------+   +------v-------+&#xa;       | Se arbeten |  Registrera          |    | Uppdatera         |    |   Radera    |&#xa;       | (Lista)         | saneringsarbete |    | saneringsarbete |   |   sanering   |&#xa;       |                    |  Registrera         |    |  Uppdatera         |   |  Radera      |&#xa;       |                    |  kund                  |    |  kund                  |   |  kund          | &#xa;       |                    |  Registrera         |    |  Uppdatera         |    |  Radera|&#xa;       |                    |  arbetare            |    |  arbetare            |    |  arbetare    |&#xa;       |                    |                           |    |                            |    |                   |&#xa;        +------------+    +-----------------+      +---------------------+     +-------------+&#xa;                                       |                                    |                            |               &#xa;                             +------v-------+                +------v---------+    +------v------+&#xa;                             |  Spara ny   |                | Bekräfta       |     |     |Bekräfta     |&#xa;                             |  sanering   |                 |updpdatering|     | radering    |&#xa;                             +-------------+                  +------v--------+    +------v------+&#xa;                                                                 &#xa;                                    " style="text;whiteSpace=wrap;" parent="1" vertex="1">
                    <mxGeometry x="190" y="120" width="430" height="700" as="geometry"/>
                </mxCell>
            </root>
        </mxGraphModel>
    </diagram>
</mxfile>